<mxfile host="www.draw.io" modified="2019-11-19T17:32:18.767Z" agent="Mozilla/5.0 (Macintosh; Intel Mac OS X 10_15_1) AppleWebKit/537.36 (KHTML, like Gecko) Chrome/78.0.3904.97 Safari/537.36" etag="hJiOucPXWmHoKnYUkTHV" version="12.2.7" type="github" pages="1">
  <diagram id="FvYYyCHicEESvJoTDcGW" name="Page-1">
    <mxGraphModel dx="1050" dy="1081" grid="1" gridSize="10" guides="1" tooltips="1" connect="1" arrows="1" fold="1" page="1" pageScale="1" pageWidth="850" pageHeight="1100" math="0" shadow="0">
      <root>
        <mxCell id="0"/>
        <mxCell id="1" parent="0"/>
        <mxCell id="eDEdfqVoADCqmHADNR-S-3" value="" style="edgeStyle=orthogonalEdgeStyle;rounded=0;orthogonalLoop=1;jettySize=auto;html=1;" parent="1" source="eDEdfqVoADCqmHADNR-S-1" target="eDEdfqVoADCqmHADNR-S-2" edge="1">
          <mxGeometry relative="1" as="geometry"/>
        </mxCell>
        <mxCell id="eDEdfqVoADCqmHADNR-S-1" value="Issue Reported" style="whiteSpace=wrap;html=1;aspect=fixed;" parent="1" vertex="1">
          <mxGeometry x="360" y="80" width="80" height="80" as="geometry"/>
        </mxCell>
        <mxCell id="eDEdfqVoADCqmHADNR-S-9" value="" style="edgeStyle=orthogonalEdgeStyle;rounded=0;orthogonalLoop=1;jettySize=auto;html=1;" parent="1" source="eDEdfqVoADCqmHADNR-S-2" edge="1">
          <mxGeometry relative="1" as="geometry">
            <mxPoint x="400" y="330" as="targetPoint"/>
          </mxGeometry>
        </mxCell>
        <mxCell id="eDEdfqVoADCqmHADNR-S-2" value="Unassigned Queue" style="whiteSpace=wrap;html=1;aspect=fixed;" parent="1" vertex="1">
          <mxGeometry x="360" y="200" width="80" height="80" as="geometry"/>
        </mxCell>
        <mxCell id="eDEdfqVoADCqmHADNR-S-18" style="edgeStyle=orthogonalEdgeStyle;rounded=0;orthogonalLoop=1;jettySize=auto;html=1;" parent="1" source="eDEdfqVoADCqmHADNR-S-6" target="eDEdfqVoADCqmHADNR-S-17" edge="1">
          <mxGeometry relative="1" as="geometry"/>
        </mxCell>
        <mxCell id="eDEdfqVoADCqmHADNR-S-19" value="Yes" style="text;html=1;resizable=0;points=[];align=center;verticalAlign=middle;labelBackgroundColor=#ffffff;" parent="eDEdfqVoADCqmHADNR-S-18" vertex="1" connectable="0">
          <mxGeometry x="-0.1077" y="-1" relative="1" as="geometry">
            <mxPoint x="3.5" y="14" as="offset"/>
          </mxGeometry>
        </mxCell>
        <mxCell id="eDEdfqVoADCqmHADNR-S-21" style="edgeStyle=orthogonalEdgeStyle;rounded=0;orthogonalLoop=1;jettySize=auto;html=1;" parent="1" source="eDEdfqVoADCqmHADNR-S-6" target="eDEdfqVoADCqmHADNR-S-20" edge="1">
          <mxGeometry relative="1" as="geometry"/>
        </mxCell>
        <mxCell id="eDEdfqVoADCqmHADNR-S-22" value="No" style="text;html=1;resizable=0;points=[];align=center;verticalAlign=middle;labelBackgroundColor=#ffffff;" parent="eDEdfqVoADCqmHADNR-S-21" vertex="1" connectable="0">
          <mxGeometry x="0.04" y="1" relative="1" as="geometry">
            <mxPoint x="9" y="-1" as="offset"/>
          </mxGeometry>
        </mxCell>
        <mxCell id="eDEdfqVoADCqmHADNR-S-6" value="&lt;b&gt;Dev Team:&lt;br&gt;&lt;/b&gt;outage or &lt;br&gt;critical &lt;br&gt;failure?" style="rhombus;whiteSpace=wrap;html=1;" parent="1" vertex="1">
          <mxGeometry x="345" y="330" width="110" height="110" as="geometry"/>
        </mxCell>
        <mxCell id="eDEdfqVoADCqmHADNR-S-17" value="&lt;b&gt;Dev Team: &lt;/b&gt;Take ownership, resolve issue" style="whiteSpace=wrap;html=1;aspect=fixed;" parent="1" vertex="1">
          <mxGeometry x="520" y="345" width="80" height="80" as="geometry"/>
        </mxCell>
        <mxCell id="eDEdfqVoADCqmHADNR-S-25" style="edgeStyle=orthogonalEdgeStyle;rounded=0;orthogonalLoop=1;jettySize=auto;html=1;" parent="1" source="eDEdfqVoADCqmHADNR-S-20" target="eDEdfqVoADCqmHADNR-S-24" edge="1">
          <mxGeometry relative="1" as="geometry"/>
        </mxCell>
        <mxCell id="eDEdfqVoADCqmHADNR-S-20" value="Assign to product team (Sara, Erica)" style="whiteSpace=wrap;html=1;aspect=fixed;" parent="1" vertex="1">
          <mxGeometry x="360" y="490" width="80" height="80" as="geometry"/>
        </mxCell>
        <mxCell id="eDEdfqVoADCqmHADNR-S-27" style="edgeStyle=orthogonalEdgeStyle;rounded=0;orthogonalLoop=1;jettySize=auto;html=1;" parent="1" source="eDEdfqVoADCqmHADNR-S-24" target="eDEdfqVoADCqmHADNR-S-26" edge="1">
          <mxGeometry relative="1" as="geometry"/>
        </mxCell>
        <mxCell id="eDEdfqVoADCqmHADNR-S-28" value="No" style="text;html=1;resizable=0;points=[];align=center;verticalAlign=middle;labelBackgroundColor=#ffffff;" parent="eDEdfqVoADCqmHADNR-S-27" vertex="1" connectable="0">
          <mxGeometry x="-0.0154" y="-1" relative="1" as="geometry">
            <mxPoint x="-7" y="14" as="offset"/>
          </mxGeometry>
        </mxCell>
        <mxCell id="eDEdfqVoADCqmHADNR-S-30" style="edgeStyle=orthogonalEdgeStyle;rounded=0;orthogonalLoop=1;jettySize=auto;html=1;" parent="1" source="eDEdfqVoADCqmHADNR-S-24" target="eDEdfqVoADCqmHADNR-S-29" edge="1">
          <mxGeometry relative="1" as="geometry"/>
        </mxCell>
        <mxCell id="eDEdfqVoADCqmHADNR-S-31" value="Yes" style="text;html=1;resizable=0;points=[];align=center;verticalAlign=middle;labelBackgroundColor=#ffffff;" parent="eDEdfqVoADCqmHADNR-S-30" vertex="1" connectable="0">
          <mxGeometry x="-0.12" y="4" relative="1" as="geometry">
            <mxPoint x="6" y="-2" as="offset"/>
          </mxGeometry>
        </mxCell>
        <mxCell id="eDEdfqVoADCqmHADNR-S-24" value="&lt;b&gt;Product &lt;br&gt;Team: &lt;/b&gt;Accept &lt;br&gt;Issue into &lt;br&gt;backlog?" style="rhombus;whiteSpace=wrap;html=1;" parent="1" vertex="1">
          <mxGeometry x="345" y="620" width="110" height="110" as="geometry"/>
        </mxCell>
        <mxCell id="eDEdfqVoADCqmHADNR-S-26" value="&lt;b&gt;Product Team:&lt;/b&gt;&lt;br&gt;Respond, close issue" style="whiteSpace=wrap;html=1;aspect=fixed;" parent="1" vertex="1">
          <mxGeometry x="520" y="635" width="80" height="80" as="geometry"/>
        </mxCell>
        <mxCell id="eDEdfqVoADCqmHADNR-S-38" style="edgeStyle=orthogonalEdgeStyle;rounded=0;orthogonalLoop=1;jettySize=auto;html=1;entryX=0.5;entryY=0;entryDx=0;entryDy=0;" parent="1" source="eDEdfqVoADCqmHADNR-S-29" target="eDEdfqVoADCqmHADNR-S-37" edge="1">
          <mxGeometry relative="1" as="geometry"/>
        </mxCell>
        <mxCell id="eDEdfqVoADCqmHADNR-S-29" value="&lt;b&gt;Product Team:&lt;/b&gt;&lt;br&gt;Response, create backlog ticket, close issue" style="whiteSpace=wrap;html=1;aspect=fixed;" parent="1" vertex="1">
          <mxGeometry x="355" y="780" width="90" height="90" as="geometry"/>
        </mxCell>
        <mxCell id="eDEdfqVoADCqmHADNR-S-33" value="Dev Team:&lt;br&gt;Michael &lt;br&gt;Keith&lt;br&gt;Mike&lt;br&gt;Matt" style="strokeWidth=1;shadow=0;dashed=0;align=center;html=1;shape=mxgraph.mockup.text.callout;linkText=;textSize=17;textColor=#666666;callDir=NW;callStyle=line;fontSize=17;fontColor=#666666;align=left;verticalAlign=top;strokeColor=#666666;" parent="1" vertex="1">
          <mxGeometry x="160" y="270" width="200" height="100" as="geometry"/>
        </mxCell>
        <mxCell id="eDEdfqVoADCqmHADNR-S-34" value="Triage" style="strokeWidth=1;shadow=0;dashed=0;align=center;html=1;shape=mxgraph.mockup.text.callout;linkText=;textSize=17;textColor=#666666;callDir=NW;callStyle=line;fontSize=17;fontColor=#666666;align=left;verticalAlign=top;strokeColor=#666666;" parent="1" vertex="1">
          <mxGeometry x="170" y="550" width="200" height="100" as="geometry"/>
        </mxCell>
        <mxCell id="eDEdfqVoADCqmHADNR-S-35" value="How to reproduce?&lt;br&gt;Fill in missing information.&lt;br&gt;Discuss with AEs&lt;br&gt;Users impacted?&lt;br&gt;Compatible with roadmap?&lt;br&gt;Inline with business direction?" style="text;html=1;resizable=0;points=[];autosize=1;align=left;verticalAlign=top;spacingTop=-4;" parent="1" vertex="1">
          <mxGeometry x="140" y="580" width="170" height="90" as="geometry"/>
        </mxCell>
        <mxCell id="eDEdfqVoADCqmHADNR-S-40" value="" style="edgeStyle=orthogonalEdgeStyle;rounded=0;orthogonalLoop=1;jettySize=auto;html=1;" parent="1" source="eDEdfqVoADCqmHADNR-S-37" target="eDEdfqVoADCqmHADNR-S-39" edge="1">
          <mxGeometry relative="1" as="geometry"/>
        </mxCell>
        <mxCell id="eDEdfqVoADCqmHADNR-S-37" value="&lt;b&gt;Product Team:&lt;/b&gt;&lt;br&gt;Rank backlog by priority" style="whiteSpace=wrap;html=1;aspect=fixed;" parent="1" vertex="1">
          <mxGeometry x="355" y="920" width="90" height="90" as="geometry"/>
        </mxCell>
        <mxCell id="eDEdfqVoADCqmHADNR-S-39" value="&lt;b&gt;Product/Dev Team:&lt;/b&gt;&lt;br&gt;Select for Sprint" style="whiteSpace=wrap;html=1;aspect=fixed;" parent="1" vertex="1">
          <mxGeometry x="355" y="1060" width="90" height="90" as="geometry"/>
        </mxCell>
      </root>
    </mxGraphModel>
  </diagram>
</mxfile>
